<svg width="128" height="128" xmlns="http://www.w3.org/2000/svg" preserveAspectRatio="xMidYMid meet" class="iconify iconify--noto" role="img" aria-hidden="true">

 <g>
  <title>Layer 1</title>
  <path id="svg_1" fill="#ff1e00" d="m108.7,112.03l-25.11,-33.39c13.01,-5.37 22.18,-18.08 22.18,-32.87c0,-19.63 -16.13,-35.61 -35.96,-35.61l-37.86,0c-0.15,0 -0.28,0.06 -0.42,0.09l-6.46,0c-1.24,0 -2.24,1 -2.24,2.24l0,100.96c0,1.24 1,2.24 2.24,2.24l21.89,0c1.24,0 2.24,-1 2.24,-2.24l0,-32.08l8.64,0l25.2,33.51c0.45,0.59 1.15,0.94 1.89,0.94l21.89,0c0.9,0 1.72,-0.51 2.11,-1.31c0.4,-0.8 0.31,-1.76 -0.23,-2.48zm-40.58,-51.65c-0.36,0.03 -0.72,0.06 -1.08,0.06l-17.47,0c-0.05,0 -0.09,-0.04 -0.14,-0.06c-0.09,-0.02 -0.18,-0.04 -0.24,-0.1a0.577,0.577 0 0 1 -0.21,-0.43l0,-28.18c0,-0.17 0.08,-0.32 0.21,-0.43c0.06,-0.05 0.14,-0.07 0.22,-0.09c0.06,-0.02 0.1,-0.07 0.16,-0.07l17.46,0c0.42,0 0.84,0.03 1.25,0.07c7.22,0.66 12.9,6.96 12.9,14.61c0.01,7.72 -5.76,14.04 -13.06,14.62z"/>
 </g>
</svg>
